# 3ds Max Wavefront OBJ Exporter v0.97b - (c)2007 guruware
# File Created: 04.12.2013 23:46:22

#
# object Box002
#

v  1.8065 4.9399 -1.4927
v  1.8065 4.9399 2.1224
v  -1.8086 4.9399 2.1224
v  -1.8086 4.9399 -1.4927
v  2.4793 4.1457 -1.4927
v  2.4793 5.4359 -1.4927
v  2.4793 5.4359 2.7952
v  2.4793 4.1457 2.1224
v  2.1429 4.9399 -1.4927
v  2.1429 4.9399 2.1224
v  -2.1450 4.9399 2.1224
v  -2.1450 4.9399 -1.4927
v  -2.4814 -0.0208 -1.4927
v  -2.4814 -0.0208 -2.1654
v  -1.8086 -0.0208 -2.1654
v  -1.8086 -0.0208 -1.4927
v  -1.8086 -0.0208 2.7952
v  -2.4814 -0.0208 2.7952
v  -2.4814 -0.0208 2.1224
v  -1.8086 -0.0208 2.1224
v  2.4793 -0.0208 2.1224
v  2.4793 -0.0208 2.7952
v  1.8065 -0.0208 2.7952
v  1.8065 -0.0208 2.1224
v  -2.4814 11.4999 -2.4662
v  -1.8086 11.4999 -2.4662
v  -1.8086 11.4296 -2.7952
v  -2.4814 11.4296 -2.7952
v  1.8065 4.1457 -1.8290
v  1.8065 4.1481 -1.4927
v  1.8065 4.9399 -1.8290
v  1.8065 5.4359 -2.1654
v  2.4793 5.4359 -2.1654
v  1.8065 4.1457 -2.1654
v  -2.4814 5.4359 -2.1654
v  -1.8086 5.4359 -2.1654
v  -1.8086 4.1457 -2.1654
v  -2.1450 4.1469 -1.4927
v  -1.8086 4.1478 -1.4927
v  -2.4814 5.4359 -1.4927
v  -2.4814 4.1481 -1.4927
v  -1.8086 4.9399 2.4588
v  -1.8086 3.5254 2.4588
v  -1.8086 4.1487 2.1224
v  2.1429 4.1457 2.1224
v  1.8065 4.1521 2.1224
v  -2.1450 4.1469 2.1224
v  2.1429 4.1457 -1.4927
v  -1.8086 4.9399 -1.8290
v  1.8065 4.9399 2.4588
v  2.4793 -0.0208 -2.1654
v  2.4793 -0.0208 -1.4927
v  1.8065 -0.0208 -1.4927
v  1.8065 -0.0208 -2.1654
v  -1.8086 4.1457 -1.8290
v  1.8065 3.5254 2.4588
v  1.8086 11.4296 -2.7952
v  2.4814 11.4296 -2.7952
v  -2.4814 5.4359 2.7952
v  -2.4814 4.1481 2.1224
v  -1.8086 3.5254 2.7952
v  1.8065 3.5254 2.7952
v  1.8086 11.4999 -2.4662
v  2.4814 11.4999 -2.4662
v  1.9752 8.9838 -2.4336
v  1.9752 7.8889 -2.2935
v  -1.9773 7.8889 -2.2935
v  -1.9773 8.9838 -2.4336
v  1.9752 7.9132 -2.0249
v  -1.9773 7.9132 -2.0249
v  1.9752 9.0155 -2.1970
v  -1.9773 9.0155 -2.1970
v  1.9752 5.4359 -2.0150
v  -1.9773 5.4359 -2.0150
v  -1.9773 6.7930 -2.1722
v  1.9752 6.7930 -2.1722
v  1.9752 6.8031 -1.8713
v  -1.9773 6.8031 -1.8713
v  -1.9773 5.4359 -1.6461
v  1.9752 5.4359 -1.6461
v  1.9756 11.1783 -2.6886
v  1.9752 10.0844 -2.5545
v  -1.9773 10.0844 -2.5545
v  -1.9773 11.1783 -2.6886
v  1.9752 10.1249 -2.3500
v  -1.9773 10.1249 -2.3500
v  1.9752 11.2260 -2.5162
v  -1.9773 11.2260 -2.5162
v  1.8065 5.4359 -1.4927
v  -1.8086 5.4359 -1.4927
v  1.8065 10.1299 -2.2463
# 91 vertices

vn 0.0000 -1.0000 -0.0000
vn 1.0000 0.0000 -0.0000
vn 1.0000 -0.0001 -0.0000
vn 0.0000 0.9779 -0.2092
vn -1.0000 0.0000 -0.0000
vn 0.0000 -0.0349 -0.9994
vn 0.0000 -0.0523 -0.9986
vn 0.0000 0.0000 -1.0000
vn 0.0000 0.0000 1.0000
vn 1.0000 -0.0002 0.0000
vn 0.0000 -0.1045 -0.9945
vn -0.0034 -1.0000 -0.0000
vn 1.0000 -0.0003 0.0001
vn 0.0000 -0.1270 -0.9919
vn -0.0000 -0.9959 0.0901
vn -0.0000 0.1542 0.9880
vn 0.0000 0.1542 0.9880
vn 0.0000 0.9912 -0.1327
vn -0.0000 -0.1151 -0.9934
vn 0.0000 -0.1151 -0.9934
vn 0.0000 0.1626 0.9867
vn 0.0000 0.9994 -0.0334
vn 0.0000 -0.1217 -0.9926
vn 0.0000 -0.9809 0.1945
vn 0.0000 0.1492 0.9888
vn 0.0000 0.9638 -0.2666
vn 0.0000 1.0000 -0.0000
vn -1.0000 -0.0008 -0.0058
vn -1.0000 0.0015 -0.0003
vn -1.0000 0.0011 -0.0010
vn -1.0000 0.0003 -0.0002
vn -1.0000 0.0004 -0.0000
vn 0.0000 0.1585 0.9874
# 33 vertex normals

vt 0.7016 0.6997 0.0000
vt 0.7016 0.5030 0.0000
vt 0.8983 0.5030 0.0000
vt 0.8983 0.6997 0.0000
vt 0.8282 0.2910 0.0000
vt 0.8282 0.3612 0.0000
vt 0.5948 0.3612 0.0000
vt 0.6314 0.2910 0.0000
vt 0.6833 0.6997 0.0000
vt 0.6833 0.5030 0.0000
vt 0.9167 0.5030 0.0000
vt 0.9167 0.6997 0.0000
vt 0.3249 0.9647 0.0000
vt 0.3249 0.9281 0.0000
vt 0.3615 0.9281 0.0000
vt 0.3615 0.9647 0.0000
vt 0.3615 0.0643 0.0000
vt 0.3249 0.0643 0.0000
vt 0.3249 0.0277 0.0000
vt 0.3615 0.0277 0.0000
vt 0.5216 0.0277 0.0000
vt 0.5582 0.0277 0.0000
vt 0.5582 0.0643 0.0000
vt 0.5216 0.0643 0.0000
vt 0.0864 0.9729 0.0000
vt 0.1230 0.9729 0.0000
vt 0.1230 0.9908 0.0000
vt 0.0864 0.9908 0.0000
vt 0.7016 0.7612 0.0000
vt 0.6833 0.7611 0.0000
vt 0.6833 0.7180 0.0000
vt 0.7016 0.7180 0.0000
vt 0.5582 0.6312 0.0000
vt 0.5948 0.6312 0.0000
vt 0.5582 0.7014 0.0000
vt 0.3249 0.6312 0.0000
vt 0.3615 0.6312 0.0000
vt 0.3615 0.7014 0.0000
vt 0.9598 0.6997 0.0000
vt 0.9598 0.7180 0.0000
vt 0.9167 0.7180 0.0000
vt 0.3249 0.5946 0.0000
vt 0.2548 0.5946 0.0000
vt 0.8983 0.4847 0.0000
vt 0.8983 0.4077 0.0000
vt 0.9166 0.4416 0.0000
vt 0.9166 0.4847 0.0000
vt 0.6401 0.5030 0.0000
vt 0.6404 0.4847 0.0000
vt 0.6833 0.4847 0.0000
vt 0.9167 0.4847 0.0000
vt 0.9597 0.4847 0.0000
vt 0.9598 0.5030 0.0000
vt 0.6402 0.7180 0.0000
vt 0.6401 0.6997 0.0000
vt 0.8983 0.7180 0.0000
vt 0.7016 0.4847 0.0000
vt 0.5582 0.9647 0.0000
vt 0.5216 0.9647 0.0000
vt 0.5216 0.9281 0.0000
vt 0.5582 0.9281 0.0000
vt 0.8648 0.3612 0.0000
vt 0.9167 0.7611 0.0000
vt 0.8983 0.7612 0.0000
vt 0.6833 0.4418 0.0000
vt 0.7016 0.4077 0.0000
vt 0.2937 0.9695 0.0000
vt 0.2572 0.9675 0.0000
vt 0.2748 0.6420 0.0000
vt 0.3113 0.6440 0.0000
vt 0.0682 0.9725 0.0000
vt 0.0317 0.9745 0.0000
vt 0.0139 0.6490 0.0000
vt 0.0504 0.6470 0.0000
vt 0.0864 0.6418 0.0000
vt 0.8099 0.2910 0.0000
vt 0.8282 0.0643 0.0000
vt 0.5948 0.9281 0.0000
vt 0.3798 0.7014 0.0000
vt 0.0279 0.6312 0.0000
vt 0.0279 0.5946 0.0000
vt 0.0279 0.3978 0.0000
vt 0.0279 0.3612 0.0000
vt 0.3249 0.3612 0.0000
vt 0.2548 0.3978 0.0000
vt 0.2547 0.4161 0.0000
vt 0.0279 0.4345 0.0000
vt 0.3798 0.2573 0.0000
vt 0.3981 0.0643 0.0000
vt 0.3981 0.2912 0.0000
vt 0.3615 0.2573 0.0000
vt 0.5948 0.0643 0.0000
vt 0.5582 0.2573 0.0000
vt 0.5399 0.2573 0.0000
vt 0.6314 0.0643 0.0000
vt 0.8648 0.0643 0.0000
vt 0.5399 0.7014 0.0000
vt 0.9781 0.6997 0.0000
vt 0.9781 0.5030 0.0000
vt 0.6218 0.5030 0.0000
vt 0.6218 0.6997 0.0000
vt 0.7016 0.7795 0.0000
vt 0.8983 0.7795 0.0000
vt 0.8983 0.3894 0.0000
vt 0.7016 0.3894 0.0000
vt 0.2547 0.5763 0.0000
vt 0.6497 0.2910 0.0000
vt 0.6680 0.0643 0.0000
vt 0.2548 0.4345 0.0000
vt 0.2024 0.9674 0.0000
vt 0.2390 0.9679 0.0000
vt 0.2387 0.9858 0.0000
vt 0.2021 0.9853 0.0000
vt 0.2389 0.6369 0.0000
vt 0.0511 0.2490 0.0000
vt 0.0511 0.1895 0.0000
vt 0.2662 0.1895 0.0000
vt 0.2662 0.2490 0.0000
vt 0.0511 0.3365 0.0000
vt 0.0511 0.3219 0.0000
vt 0.2662 0.3219 0.0000
vt 0.2662 0.3365 0.0000
vt 0.0511 0.2619 0.0000
vt 0.2662 0.2619 0.0000
vt 0.2690 0.1787 0.0000
vt 0.0539 0.1787 0.0000
vt 0.0539 0.1048 0.0000
vt 0.2690 0.1048 0.0000
vt 0.2690 0.0884 0.0000
vt 0.0539 0.0884 0.0000
vt 0.0539 0.0140 0.0000
vt 0.2690 0.0140 0.0000
vt 0.7077 0.8720 0.0000
vt 0.7077 0.8124 0.0000
vt 0.9228 0.8124 0.0000
vt 0.9228 0.8720 0.0000
vt 0.7077 0.9524 0.0000
vt 0.7077 0.9413 0.0000
vt 0.9228 0.9413 0.0000
vt 0.9228 0.9524 0.0000
vt 0.7077 0.8814 0.0000
vt 0.9228 0.8814 0.0000
vt 0.5582 0.5946 0.0000
vt 0.3615 0.5946 0.0000
vt 0.1230 0.6418 0.0000
vt 0.1589 0.6470 0.0000
vt 0.1411 0.9725 0.0000
vt 0.2023 0.8932 0.0000
vt 0.2023 0.9687 0.0000
vt 0.1841 0.9677 0.0000
vt 0.2023 0.6370 0.0000
vt 0.1663 0.6423 0.0000
vt 0.5948 0.5946 0.0000
vt 0.0279 0.5580 0.0000
vt 0.2548 0.5580 0.0000
vt 0.3981 0.9281 0.0000
vt 0.3981 0.7013 0.0000
vt 0.5216 0.7013 0.0000
vt 0.7915 0.0643 0.0000
vt 0.7915 0.2911 0.0000
vt 0.6680 0.2914 0.0000
vt 0.5216 0.2914 0.0000
# 162 texture coords

g Box002
s 1
f 1/1/1 2/2/1 3/3/1 
f 3/3/1 4/4/1 1/1/1 
f 5/5/2 6/6/3 7/7/2 
f 7/7/2 8/8/2 5/5/2 
f 9/9/1 10/10/1 2/2/1 
f 2/2/1 1/1/1 9/9/1 
f 11/11/1 12/12/1 4/4/1 
f 4/4/1 3/3/1 11/11/1 
f 13/13/1 14/14/1 15/15/1 
f 15/15/1 16/16/1 13/13/1 
f 17/17/1 18/18/1 19/19/1 
f 19/19/1 20/20/1 17/17/1 
s 2
f 21/21/1 22/22/1 23/23/1 
f 23/23/1 24/24/1 21/21/1 
s 1
f 25/25/4 26/26/4 27/27/4 
f 27/27/4 28/28/4 25/25/4 
s 2
f 29/29/5 30/30/5 1/31/5 
f 1/31/5 31/32/5 29/29/5 
s 4
f 32/33/6 33/34/7 34/35/8 
f 35/36/7 36/37/6 37/38/8 
s 2
f 38/39/9 39/40/9 4/41/9 
f 4/41/9 12/12/9 38/39/9 
s 8
f 40/42/5 35/36/5 41/43/5 
s 2
f 42/44/2 43/45/2 44/46/2 
f 44/46/2 3/47/2 42/44/2 
s 4
f 45/48/8 46/49/8 2/50/8 
f 2/50/8 10/10/8 45/48/8 
f 3/51/8 44/52/8 47/53/8 
f 47/53/8 11/11/8 3/51/8 
f 30/54/9 48/55/9 48/55/9 
f 1/31/9 30/54/9 48/55/9 
f 9/9/9 1/31/9 48/55/9 
s 1
f 1/1/1 4/4/1 49/56/1 
f 49/56/1 31/32/1 1/1/1 
f 3/3/1 2/2/1 50/57/1 
f 50/57/1 42/44/1 3/3/1 
s 8
f 51/58/1 52/59/1 53/60/1 
f 53/60/1 54/61/1 51/58/1 
s 1
f 33/62/10 6/6/3 5/5/2 
s 8
f 4/41/2 39/63/2 55/64/2 
f 55/64/2 49/56/2 4/41/2 
f 2/50/5 46/65/5 56/66/5 
f 56/66/5 50/57/5 2/50/5 
s 4
f 57/67/11 58/68/11 33/69/7 
f 33/69/7 32/70/6 57/67/11 
f 28/71/11 27/72/11 36/73/6 
f 36/73/6 35/74/7 28/71/11 
s 8
f 40/75/5 25/25/5 28/71/5 
f 28/71/5 35/74/5 40/75/5 
s 4
f 5/5/9 48/76/9 48/76/9 
f 48/76/9 52/77/9 5/5/9 
f 51/78/8 54/61/8 34/35/8 
f 34/35/8 33/34/7 51/78/8 
f 15/15/8 14/14/8 35/36/7 
f 35/36/7 37/38/8 15/15/8 
s 8
f 55/79/2 15/15/2 37/38/2 
f 14/80/5 13/81/5 41/43/5 
f 41/43/5 35/36/5 14/80/5 
f 19/82/5 18/83/5 59/84/5 
f 59/84/5 60/85/5 19/82/5 
s 4
f 47/86/8 20/87/8 19/82/8 
f 19/82/8 60/85/8 47/86/8 
s 2
f 43/88/2 20/89/2 44/90/2 
s 4
f 18/18/9 17/17/9 61/91/9 
f 61/91/9 59/84/9 18/18/9 
f 23/23/9 22/92/9 7/7/9 
f 7/7/9 62/93/9 23/23/9 
s 8
f 56/94/5 24/24/5 23/23/5 
f 23/23/5 62/93/5 56/94/5 
s 1
f 22/92/2 21/95/2 8/8/2 
f 8/8/2 7/7/2 22/92/2 
f 52/77/2 51/96/2 33/62/10 
f 33/62/10 5/5/2 52/77/2 
s 2
f 34/35/5 54/61/5 29/97/5 
s 8
f 59/84/5 40/42/5 41/43/5 
f 41/43/5 60/85/5 59/84/5 
f 12/12/2 11/11/2 47/53/2 
f 47/53/2 38/39/2 12/12/2 
s 1
f 41/98/12 38/39/12 47/53/12 
f 47/53/12 60/99/12 41/98/12 
s 4
f 36/37/6 32/33/6 34/35/8 
f 34/35/8 37/38/8 36/37/6 
f 7/7/9 59/84/9 61/91/9 
f 61/91/9 62/93/9 7/7/9 
s 2
f 10/10/5 9/9/5 48/55/5 
f 48/55/5 45/48/5 10/10/5 
s 4
f 31/32/9 49/56/9 55/64/9 
f 55/64/9 29/29/9 31/32/9 
f 42/44/8 50/57/8 56/66/8 
f 56/66/8 43/45/8 42/44/8 
s 8
f 8/100/1 45/48/1 48/55/1 
f 48/55/1 5/101/1 8/100/1 
s 1
f 34/102/1 29/29/1 55/64/1 
f 55/64/1 37/103/1 34/102/1 
f 61/104/1 43/45/1 56/66/1 
f 56/66/1 62/105/1 61/104/1 
s 2
f 38/106/9 41/43/9 13/81/9 
s 4
f 45/107/8 8/8/8 21/95/8 
f 21/95/8 24/108/8 45/107/8 
s 2
f 43/88/2 61/91/2 17/17/2 
f 17/17/2 20/89/2 43/88/2 
s 4
f 47/86/8 44/109/8 20/87/8 
s 2
f 63/110/4 64/111/4 58/112/4 
f 58/112/4 57/113/4 63/110/4 
s 1
f 64/111/13 6/114/3 33/69/10 
f 33/69/10 58/68/13 64/111/13 
f 65/115/14 66/116/14 67/117/14 
f 67/117/14 68/118/14 65/115/14 
s 2
f 66/119/15 69/120/15 70/121/15 
f 70/121/15 67/122/15 66/119/15 
s 1
f 69/120/16 71/123/16 72/124/17 
f 72/124/17 70/121/17 69/120/16 
s 2
f 71/123/18 65/115/18 68/118/18 
f 68/118/18 72/124/18 71/123/18 
s 1
f 73/125/19 74/126/20 75/127/19 
f 75/127/19 76/128/19 73/125/19 
f 77/129/21 78/130/21 79/131/21 
f 79/131/21 80/132/21 77/129/21 
s 2
f 77/129/22 76/128/22 75/127/22 
f 75/127/22 78/130/22 77/129/22 
s 1
f 81/133/23 82/134/23 83/135/23 
f 83/135/23 84/136/23 81/133/23 
s 2
f 82/137/24 85/138/24 86/139/24 
f 86/139/24 83/140/24 82/137/24 
s 1
f 85/138/25 87/141/25 88/142/25 
f 88/142/25 86/139/25 85/138/25 
s 2
f 87/141/26 81/133/26 84/136/26 
f 84/136/26 88/142/26 87/141/26 
s 1
f 89/143/27 32/33/27 36/37/27 
f 36/37/27 90/144/27 89/143/27 
s 2
f 26/26/2 90/145/2 36/146/2 
f 36/146/2 27/147/2 26/26/2 
s 8
f 91/148/28 63/149/29 57/150/30 
f 89/151/31 91/148/28 57/150/30 
f 32/152/32 89/151/31 57/150/30 
s 32
f 26/26/33 25/25/33 40/75/33 
f 40/75/33 90/145/33 26/26/33 
f 64/111/33 63/110/33 91/148/33 
f 64/111/33 91/148/33 89/151/33 
f 6/114/33 64/111/33 89/151/33 
s 16
f 7/7/27 89/143/27 90/144/27 
f 90/144/27 59/84/27 7/7/27 
s off
f 59/84/27 90/144/27 40/42/27 
f 6/153/27 89/143/27 7/7/27 
s 2
f 38/106/9 13/81/9 16/154/9 
f 16/154/9 39/155/9 38/106/9 
s 8
f 16/156/2 15/15/2 55/79/2 
f 55/79/2 39/157/2 16/156/2 
s 2
f 29/97/5 54/61/5 53/60/5 
f 53/60/5 30/158/5 29/97/5 
s 4
f 53/159/9 52/77/9 48/76/9 
f 48/76/9 30/160/9 53/159/9 
f 45/107/8 24/108/8 46/161/8 
s 8
f 46/162/5 24/24/5 56/94/5 
# 154 faces

